<?xml version="1.0" encoding="utf-8"?>
<!-- Generator: Adobe Illustrator 21.0.2, SVG Export Plug-In . SVG Version: 6.00 Build 0)  -->
<svg version="1.1" id="Layer_1" xmlns="http://www.w3.org/2000/svg" xmlns:xlink="http://www.w3.org/1999/xlink" x="0px" y="0px"
	 viewBox="0 0 1080.3 900.2" style="enable-background:new 0 0 1080.3 900.2;" xml:space="preserve">
<style type="text/css">
	.st0{fill:#F41364;}
	.st1{fill:#1AA5AD;}
	.st2{fill:#0D0620;}
	.st3{fill:#FFFFFF;}
</style>
<title>Asset 2</title>
<g id="Layer_2">
	<g id="Capa_1">
		<path class="st0" d="M540.1,156v470.6H187.2V391.3c0-129.9,105.4-235.3,235.3-235.3H540.1z"/>
		<path class="st1" d="M540.1,156v470.6h352.9V391.3c0-129.9-105.4-235.3-235.3-235.3H540.1z"/>
		<rect x="187.2" y="626.6" class="st2" width="705.9" height="117.6"/>
		<rect x="439" y="553.6" class="st2" width="202.3" height="72.9"/>
		<path class="st3" d="M655.9,461.9c8.6-24.3,17.1-48.7,25.7-73c13.1-37.1,26.3-74.1,39.3-111.2c1.7-5,3.8-7.3,9.5-7.2
			c20.5,0.4,41,0.4,61.5,0.1c6.3-0.1,7,1.6,5,7.3c-26.4,73.8-52.6,147.7-78.7,221.6c-1.8,5-4.3,6.4-9.4,6.3
			c-20.8-0.3-41.5-0.3-62.3,0c-5.4,0.1-8-1.4-9.9-6.7c-26.1-73.9-52.3-147.8-78.7-221.6c-1.7-4.9-1.9-7,4.4-6.9
			c21,0.3,42.1,0.2,63.1,0.1c4.4,0,6.6,1.4,8.1,5.8c10.7,30.8,21.7,61.5,32.8,92.1c1.9,5.2,1,10.1,0.2,15.1c-4,25.3-8,50.5-12,75.8
			c0,0.8,0,1.6,0.2,2.4L655.9,461.9z"/>
		<path class="st3" d="M359.3,294.5c-3.5,13.7-7.2,27.4-10.2,41.3c-1.1,5-3.2,6.5-8.2,6.4c-17.3-0.3-34.5-0.3-51.8,0
			c-5.4,0.1-6.8-1.7-6.7-7c0.3-19.4,0.3-38.8,0-58.2c-0.1-4.9,1.4-6.5,6.4-6.5c74.2,0.1,148.3,0.1,222.5,0c5,0,6.4,1.6,6.4,6.5
			c-0.2,19.7-0.3,39.4,0,59.1c0.1,5.3-2,6.2-6.7,6.1c-22.9-0.2-45.9,0.2-68.8-0.3c-7.5-0.2-10,1.5-10,9.6
			c0.4,48.5,0.1,97.1,0.4,145.6c0,6.6-1.7,8.7-8.5,8.6c-18.3-0.5-36.7-0.4-55,0c-6.5,0.2-8.1-1.9-8.1-8.1c0.2-65,0.1-130,0.1-195
			c0-2.6,0-5.3,0-7.9L359.3,294.5z"/>
		<path class="st3" d="M481.1,596.6V611h-9.4v-41.8h14.7c10.5,0,15.8,4.4,15.8,13.3c0.1,3.9-1.5,7.7-4.5,10.2
			c-3,2.6-7.1,3.9-12.1,3.9L481.1,596.6z M481.1,576.4v13h3.7c5,0,7.5-2.2,7.5-6.6c0-4.3-2.5-6.4-7.5-6.4H481.1z"/>
		<path class="st3" d="M533.2,611h-24.9v-41.8h9.4v34.2h15.5L533.2,611z"/>
		<path class="st3" d="M572.9,592.9c0,12.6-5.8,18.8-17.5,18.8c-11.3,0-17-6.1-17-18.4v-24.1h9.4v24.2c0,6.8,2.6,10.1,7.9,10.1
			c5.2,0,7.8-3.3,7.8-9.8v-24.6h9.4L572.9,592.9z"/>
		<path class="st3" d="M580.1,609.4v-9.3c1.6,1.4,3.5,2.5,5.5,3.2c1.9,0.7,4,1.1,6,1.1c1,0,2.1-0.1,3.1-0.3c0.8-0.2,1.5-0.5,2.2-0.9
			c0.5-0.3,1-0.8,1.3-1.3c0.3-0.5,0.4-1.1,0.4-1.7c0-0.8-0.2-1.6-0.7-2.2c-0.5-0.7-1.2-1.3-1.9-1.8c-0.9-0.6-1.9-1.1-2.9-1.6
			c-1.1-0.5-2.3-1-3.6-1.5c-3.3-1.4-5.7-3-7.3-5c-1.6-2-2.5-4.5-2.4-7.1c-0.1-2,0.4-3.9,1.3-5.6c0.9-1.6,2.1-2.9,3.6-3.9
			c1.6-1,3.4-1.8,5.2-2.2c2.1-0.5,4.2-0.7,6.3-0.7c1.9,0,3.9,0.1,5.8,0.4c1.6,0.2,3.1,0.6,4.6,1.2v8.7c-0.7-0.5-1.5-0.9-2.3-1.3
			c-0.8-0.4-1.7-0.7-2.5-0.9c-0.9-0.2-1.7-0.4-2.6-0.5c-0.8-0.1-1.6-0.2-2.5-0.2c-1,0-2,0.1-2.9,0.3c-0.8,0.2-1.5,0.5-2.2,0.9
			c-0.6,0.3-1,0.8-1.4,1.3c-0.3,0.5-0.5,1.1-0.5,1.7c0,0.7,0.2,1.4,0.6,1.9c0.4,0.6,1,1.1,1.6,1.6c0.8,0.6,1.6,1,2.5,1.5
			c1,0.5,2.1,1,3.3,1.5c1.5,0.6,3.1,1.4,4.5,2.2c1.3,0.7,2.4,1.6,3.4,2.7c0.9,1,1.7,2.1,2.2,3.4c1.2,3.4,1,7.1-0.6,10.3
			c-0.9,1.6-2.1,2.9-3.6,3.8c-1.6,1-3.4,1.7-5.3,2.1c-2.1,0.4-4.2,0.7-6.4,0.7c-2.2,0-4.4-0.2-6.5-0.6
			C583.6,610.8,581.8,610.2,580.1,609.4z"/>
		<path class="st3" d="M359.6,702v9.6h-39.9v-52.3h13V702L359.6,702z"/>
		<path class="st3" d="M428.8,659.2l23.2,52.3h-14l-4.3-10.3h-23.4l-3.9,10.3h-13.8l21.1-52.3H428.8z M429.9,692.1l-8.5-20.3
			l-7.7,20.3H429.9z"/>
		<path class="st3" d="M535.9,659.2v9.6h-18.9v42.7h-13v-42.7h-18.9v-9.6H535.9z"/>
		<path class="st3" d="M581.9,659.2v52.3h-13.1v-52.3H581.9z"/>
		<path class="st3" d="M667.7,659.2v52.3h-11L627.8,678v33.5h-13v-52.3h12l27.9,32v-32H667.7z"/>
		<path class="st3" d="M730.6,658.6c8.9,0,16.1,2.7,21.6,8.1c5.5,5.4,8.3,11.6,8.3,18.8c0,7.2-2.8,13.5-8.4,18.8
			c-5.6,5.3-12.8,8-21.6,8c-8.9,0-16.1-2.6-21.6-7.9c-5.6-5.3-8.4-11.6-8.4-18.9c0-7.2,2.8-13.4,8.3-18.8
			C714.4,661.3,721.7,658.6,730.6,658.6z M730.6,701.4c4.9,0,8.9-1.5,11.9-4.4s4.5-6.8,4.5-11.6c0-4.8-1.5-8.6-4.5-11.6
			c-3-2.9-7-4.4-11.9-4.4c-5,0-9,1.5-12,4.4c-3,2.9-4.6,6.8-4.6,11.6c0,4.8,1.5,8.6,4.6,11.6S725.7,701.3,730.6,701.4z"/>
	</g>
</g>
</svg>
