<svg xmlns="http://www.w3.org/2000/svg" viewBox="0 0 204.33 109.99"><defs><style>.cls-1{fill:#00a5c9;}.cls-2{fill:#081034;}</style></defs><title>paso1</title><g id="Layer_2" data-name="Layer 2"><g id="Layer_1-2" data-name="Layer 1"><g id="wIHFx2.tif"><path class="cls-1" d="M54.9,109.85c-9.29-.11-18.6.53-27.85-.27-10.5-.91-18.6-9.68-19.31-20.22A22.13,22.13,0,0,1,24,66.36c1.07-.28,2.67,0,3.08-.91.27-.63-.84-1.84-1.3-2.81A22,22,0,0,1,55,33.28c.55.25,1,.69,1.6.66,1-10.72,7.22-18,15.71-23.6,16.63-11,39.21-5.39,50,6,6.18,6.49,7.78,14.07,6,22.61a34.5,34.5,0,0,1-3.43,10.43c-.55,1-.42,1.37.74,1.5a32.48,32.48,0,0,1,8.6,1.82C147.8,58.08,154.7,71.81,151.08,86c-2.34,9.17-7.29,16.36-15.57,21.08a21.39,21.39,0,0,1-10.56,2.78c-5.78,0-11.56,0-17.33,0Z"/></g><g id="wIHFx2.tif-2" data-name="wIHFx2.tif"><path class="cls-2" d="M51.12,33.22c-10.29-7.55-20.75-4.68-26.44.42A20.05,20.05,0,0,0,17.8,47.93c-.33,5.74,2,10.52,5.69,15a49.4,49.4,0,0,0-5.51.46,20.15,20.15,0,0,0,3.68,39.91c8,.07,16.09,0,24.13,0h1.36c.77,0,1.61.08,1.57,1.09s-.79,1-1.51,1c-9.29-.11-18.6.53-27.85-.27C8.86,104.26.76,95.5.05,85A22.13,22.13,0,0,1,16.34,62c1.07-.28,2.67,0,3.08-.91.27-.63-.84-1.84-1.3-2.81A22,22,0,0,1,47.28,28.87c.55.25,1,.69,1.6.66,1-10.72,7.22-18,15.71-23.6,16.63-11,39.21-5.39,50,6,6.18,6.49,7.78,14.07,6,22.61A34.5,34.5,0,0,1,117.23,45c-.55,1-.42,1.37.74,1.5a32.48,32.48,0,0,1,8.6,1.82c13.54,5.39,20.44,19.12,16.82,33.3-2.34,9.17-7.29,16.36-15.57,21.08a21.39,21.39,0,0,1-10.56,2.78c-5.78,0-11.56,0-17.33,0a6.37,6.37,0,0,1-1.18-.06c-.54-.1-1-.4-1-1a1,1,0,0,1,1-1,10.29,10.29,0,0,1,1.36,0c5,0,10.09-.15,15.12,0,8.56.3,15.15-3.36,20.16-9.95,6.09-8,8.9-16.92,6.07-26.93a25.5,25.5,0,0,0-22.18-18.11,42.52,42.52,0,0,0-4.91.16c-.43,0-1,.31-1.26-.13s.19-.84.43-1.19c3.21-4.74,4.73-10.06,5.67-15.66,1.28-7.68-1.15-13.95-6.64-19.18-13.37-12.74-40.68-17-56.7,3.84a23.24,23.24,0,0,0-5,11.38C50.68,29.47,51.31,31.23,51.12,33.22Z"/></g><path class="cls-2" d="M79.69,78.3l2.45-2.24c1.09-1,2.15-2.05,3.28-3a5.64,5.64,0,0,1,5.38-1.17,5.34,5.34,0,0,1,3.61,2.9,4.12,4.12,0,0,1-.55,4.57,23,23,0,0,1-2.49,2.37c-1.07,1-2.16,2-3.24,3l-4.46,4c-1.78,1.62-3.54,3.24-5.33,4.85a5.76,5.76,0,0,1-5.64,1.28A6.75,6.75,0,0,1,70,93.62c-.88-.73-1.75-1.49-2.62-2.23l-4.3-3.65L57.44,82.9l-3.08-2.63a4.32,4.32,0,0,1-1.24-5.18A5.45,5.45,0,0,1,57.46,72a5.92,5.92,0,0,1,3.37.42,5.73,5.73,0,0,1,1.39.88l5,4.21.84.73c.08.07.15.2.26.15s.06-.19.06-.29c0-1.56,0-3.12,0-4.69q0-6.22,0-12.44c0-1.7,0-3.4,0-5.1a3,3,0,0,1,1.55-2.76,7.83,7.83,0,0,1,4.93-1A7.06,7.06,0,0,1,78,53a3,3,0,0,1,1.62,2.69c0,5.51,0,11,0,16.53q0,2.88,0,5.76A.37.37,0,0,0,79.69,78.3Z"/><circle class="cls-1" cx="176.83" cy="31.08" r="27.5"/><path class="cls-2" d="M183.57,45.91h-6.86V23.17H170.1V18.33l13.48-2.08Z"/></g></g></svg>