<svg xmlns="http://www.w3.org/2000/svg" viewBox="0 0 187.64 131.12"><defs><style>.cls-1{fill:#00a5c9;}.cls-2{fill:#081034;}</style></defs><title>paso3</title><g id="Layer_2" data-name="Layer 2"><g id="Layer_1-2" data-name="Layer 1"><circle class="cls-1" cx="160.14" cy="41.63" r="27.5"/><path class="cls-2" d="M156.43,38.76h3.24a3.85,3.85,0,0,0,2.85-1,3.74,3.74,0,0,0,1-2.77,3.32,3.32,0,0,0-.9-2.36,3.4,3.4,0,0,0-2.61-1,3.8,3.8,0,0,0-2.36.77,2.4,2.4,0,0,0-1,2H150l0-.12a6.56,6.56,0,0,1,2.79-5.74,11.38,11.38,0,0,1,7.06-2.2,12.39,12.39,0,0,1,7.72,2.21,7.42,7.42,0,0,1,2.89,6.26,6.13,6.13,0,0,1-1.25,3.72,8.38,8.38,0,0,1-3.35,2.66,8,8,0,0,1,3.73,2.66,6.88,6.88,0,0,1,1.34,4.26,7.56,7.56,0,0,1-3.12,6.4,12.93,12.93,0,0,1-8,2.33,12.4,12.4,0,0,1-7.3-2.19,7,7,0,0,1-3-6.34l0-.12h6.72a3,3,0,0,0,1.11,2.39,4,4,0,0,0,2.7,1,4,4,0,0,0,2.89-1A3.37,3.37,0,0,0,164,48a4,4,0,0,0-1.13-3.14,4.69,4.69,0,0,0-3.19-1h-3.24Z"/><path class="cls-1" d="M119.37,20.83a48.1,48.1,0,0,1-26.13-6.31A105.18,105.18,0,0,0,80.69,8.24,42.27,42.27,0,0,0,50.31,7.6c-5.09,1.78-9.72,4.52-14.44,7a47.49,47.49,0,0,1-18.52,5.94c-3.06.26-6.11.16-9.16.19-1,0-1.36.31-1.31,1.32.07,1.24,0,2.49,0,4.2s.16,3.88.19,6A134.64,134.64,0,0,0,8.76,50.86,124.32,124.32,0,0,0,19.14,85.3a102.48,102.48,0,0,0,17.15,25.63,87.69,87.69,0,0,0,25.62,19.46,5.48,5.48,0,0,0,5.33.08c14.05-6.84,25.17-17,34.08-29.74,11-15.71,17-33.39,19.63-52.25a171.24,171.24,0,0,0,1.5-24.6C122.44,20.81,122.44,20.69,119.37,20.83ZM72.18,66.13a1.27,1.27,0,0,0-.8,1.62c1.24,8.46,2.36,16.94,3.62,25.4.18,1.21-.3,1.16-1.1,1.16H64.58c-3.06,0-6.11,0-9.17,0-.92,0-1.27,0-1.07-1.24,1.32-8.5,2.46-17,3.73-25.54.14-1-.39-1.1-1-1.43-5.2-3-8-7.56-8.14-13.53A15,15,0,0,1,56.4,38.95,15.73,15.73,0,1,1,72.18,66.13Z"/><path d="M58.81,128a7.15,7.15,0,0,1-3.21-.84A89.2,89.2,0,0,1,29.68,107.5,104,104,0,0,1,12.37,81.63,126,126,0,0,1,1.91,46.91,135.21,135.21,0,0,1,.21,28.26c0-.88-.06-1.76-.11-2.6C0,24.41,0,23.23,0,22.18c0-.55,0-1,0-1.51,0-1,0-1.8,0-2.61A2.3,2.3,0,0,1,.5,16.3a2.39,2.39,0,0,1,1.8-.62H4.6c2.22,0,4.54,0,6.79-.18C17.23,15,23,13.16,29.52,9.67l2.64-1.43A81,81,0,0,1,44.11,2.56a43.42,43.42,0,0,1,31.08.65A106.61,106.61,0,0,1,87.86,9.55a47.41,47.41,0,0,0,25.6,6.18c1.55-.07,2.67-.12,3.4.57s.72,1.67.72,3.46a172.25,172.25,0,0,1-1.51,24.76c-2.92,20.64-9.4,37.88-19.8,52.69-9.54,13.58-20.81,23.41-34.46,30.06A6.79,6.79,0,0,1,58.81,128ZM2,17.7a2.3,2.3,0,0,0,0,.24c.05.88,0,1.74,0,2.75,0,.47,0,1,0,1.51v0c0,1,0,2.1.08,3.31,0,.87.09,1.77.11,2.68A133.09,133.09,0,0,0,3.88,46.61,124,124,0,0,0,14.17,80.77a102,102,0,0,0,17,25.38A87.18,87.18,0,0,0,56.49,125.4a4.49,4.49,0,0,0,4.45.08C74.27,119,85.3,109.36,94.63,96.06c10.21-14.54,16.58-31.49,19.45-51.82a170.17,170.17,0,0,0,1.49-24.46,8.32,8.32,0,0,0-.13-2.06,11.31,11.31,0,0,0-1.91,0A49.34,49.34,0,0,1,86.88,11.3,104.9,104.9,0,0,0,74.45,5.07a41.48,41.48,0,0,0-29.69-.62A79.52,79.52,0,0,0,33.12,10l-2.66,1.44C23.68,15.05,17.67,17,11.55,17.49c-2.34.2-4.69.19-7,.19H2.32Z"/><path d="M51.08,94.09a1.92,1.92,0,0,1-1.58-.54,2.22,2.22,0,0,1-.32-1.86c.78-5,1.51-10.18,2.22-15.16q.74-5.19,1.5-10.38a.64.64,0,0,0,0-.18s-.15,0-.26-.1l-.24-.13a16.26,16.26,0,0,1-8.64-14.38,16,16,0,0,1,7.93-14.5,16.49,16.49,0,0,1,15.46-1.11,16.68,16.68,0,0,1,1.33,30,1.35,1.35,0,0,0-.33.21h0s0,.1,0,.38c.58,4,1.14,7.92,1.69,11.88.63,4.51,1.26,9,1.93,13.52a2.12,2.12,0,0,1-.34,1.76,2,2,0,0,1-1.68.54h-12c-2.2,0-4.4,0-6.6,0Zm9.4-57.75a14.62,14.62,0,0,0-7.71,2.22,14.07,14.07,0,0,0-7,12.76c.09,5.53,2.66,9.8,7.64,12.68l.19.11a2.06,2.06,0,0,1,1.27,2.34q-.77,5.18-1.5,10.37c-.71,5-1.44,10.12-2.23,15.18v.09h.09c2.21,0,4.41,0,6.62,0h12c-.67-4.51-1.3-9-1.94-13.54-.55-4-1.11-7.91-1.69-11.86A2.23,2.23,0,0,1,67.54,64a14.75,14.75,0,0,0-7.07-27.68Z"/></g></g></svg>